<svg id="Layer_1" data-name="Layer 1" xmlns="http://www.w3.org/2000/svg" viewBox="0 0 80 80"><defs><style>.cls-1{fill:#2c3d63;}.cls-2{fill:#00d8bb;}.cls-3{fill:#fff;}.cls-4{fill:#231f20;}.cls-5{fill:#fbdbc9;}.cls-11,.cls-6{fill:none;stroke-miterlimit:10;}.cls-6{stroke:#00a28c;stroke-width:1.85px;}.cls-7{opacity:0.5;}.cls-8{fill:#ccc;}.cls-9{fill:#00a28c;}.cls-10{fill:#52688e;}.cls-11{stroke:#fff;stroke-width:1.07px;}.cls-12{fill:#fadac6;}.cls-13{opacity:0.6;}</style></defs><title>medis_asets covid apps</title><circle class="cls-1" cx="40" cy="40" r="36" transform="translate(-12.26 61.65) rotate(-67.5)"/><path class="cls-2" d="M2.52,58.29c1.57.71,2.63.66,4.21,1.35,4-8.31,5.61-11.86,6.85-17.17L14.94,32C7,31.89,6.17,42.75,2.52,58.29Z"/><path class="cls-2" d="M31.49,62.54a191.31,191.31,0,0,0-1.63-24.25c-1-6.28-3.3-6.94-9.46-7-8.09.09-9,3.09-9,11.82.37,8.18-.68,15-1,19.46,0,0,11.23,11.81,21,12.41"/><path class="cls-1" d="M15.8,41.15c-.21-1.63-.62-3.24-.72-4.89-.08-1.33,0-3,1.26-3.78a6.3,6.3,0,0,1,2.77-.69,9.22,9.22,0,0,1,2.57,0,3.37,3.37,0,0,1,2.73,2,8.54,8.54,0,0,1,.1,4.65c-.1.55.74.78.84.23a10.3,10.3,0,0,0,0-4.78,4,4,0,0,0-2.73-2.74,7.66,7.66,0,0,0-2.61-.3,11,11,0,0,0-3.33.5,3.91,3.91,0,0,0-2.48,3.76,31.54,31.54,0,0,0,.73,6c.07.54.94.55.86,0Z"/><path class="cls-3" d="M15.6,42.53a1.57,1.57,0,0,0,0-3.13,1.57,1.57,0,0,0,0,3.13Z"/><path class="cls-4" d="M15.6,42a1.06,1.06,0,0,0,0-2.11,1.06,1.06,0,0,0,0,2.11Z"/><path class="cls-1" d="M22.71,44.84c0-.88-.18-1.76-.25-2.63a4.44,4.44,0,0,1,.35-2.62A2.37,2.37,0,0,1,25.56,39a2.17,2.17,0,0,1,1.29,2.44,9.36,9.36,0,0,1-1,3.46c-.17.34.33.63.49.3a10.66,10.66,0,0,0,1.09-3.43,3,3,0,0,0-1.11-3.06,3.27,3.27,0,0,0-3.52.09,3.32,3.32,0,0,0-.92,2.7c0,1.13.28,2.24.29,3.37a.29.29,0,0,0,.57,0Z"/><path class="cls-4" d="M24.9,38.83A4.05,4.05,0,0,1,25,38"/><path class="cls-4" d="M25.48,38.83a2.19,2.19,0,0,1,0-.36l0,.15a4.21,4.21,0,0,1,.09-.49.62.62,0,0,0-.06-.44.59.59,0,0,0-.35-.27.62.62,0,0,0-.44.06.59.59,0,0,0-.27.35,5.47,5.47,0,0,0-.13,1,.58.58,0,0,0,.57.57.53.53,0,0,0,.41-.17.56.56,0,0,0,.17-.4Z"/><path class="cls-4" d="M22.52,45.45a.66.66,0,0,0,0-1.31.66.66,0,0,0,0,1.31Z"/><path class="cls-4" d="M26,45.69a.66.66,0,0,0,0-1.32.66.66,0,0,0,0,1.32Z"/><path class="cls-5" d="M12.54,24c-2.77-.69-2.55,3.31.57,2.08"/><path class="cls-5" d="M25.12,22.23c2.31-.46,2.77,2.88-.23,2.54"/><path class="cls-5" d="M12,19.26c0,7.08,1.25,11.63,7.54,10.61,5.85-.94,6.57-4.18,4.7-12"/><path class="cls-5" d="M17.15,28.81c.09,1,.24,2,.37,2.93l-.08-.62q.11.75.18,1.5a1.73,1.73,0,0,0,.19.89,1.89,1.89,0,0,0,.48.74,2.31,2.31,0,0,0,3.27,0,2.24,2.24,0,0,0,.67-1.63c-.09-1-.24-2-.37-2.93l.09.61c-.07-.5-.13-1-.18-1.49a1.69,1.69,0,0,0-.2-.89,1.67,1.67,0,0,0-.48-.75,2.31,2.31,0,0,0-1.63-.67,2.37,2.37,0,0,0-1.63.67,2.32,2.32,0,0,0-.68,1.64Z"/><path class="cls-4" d="M11.61,20.15a13.79,13.79,0,0,0,.81,5.08c.92-1.62,1.18-3.81,1.73-5.77"/><path class="cls-4" d="M22.58,18.19c1,2.3,1.58,4.46,2.54,5.88a18.49,18.49,0,0,0,.11-5.88"/><path class="cls-2" d="M11.62,20.09c-.12-1.69-.36-3.44.48-5,1.07-1.89,3.7-2.71,5.85-2.81,5.84-.2,7.4,2.87,7.4,7"/><path class="cls-6" d="M11.27,20.27a84.68,84.68,0,0,0,14.54-1"/><path class="cls-3" d="M11.62,23.9,15.52,26l.56.3c.33.17.62-.33.3-.5l-3.9-2.09-.57-.3c-.33-.17-.62.33-.29.5Z"/><path class="cls-3" d="M22.44,25.7l2.76-2.76.39-.39a.29.29,0,0,0-.41-.41L22.42,24.9l-.39.39a.29.29,0,0,0,.41.41Z"/><path class="cls-3" d="M19.2,24.07c-5.29.12-6.24,6.35-.68,6.47,1.91,0,4.62-.58,5.3-2.31.81-2-1.09-4.49-4.62-4.16"/><g class="cls-7"><path class="cls-8" d="M16.23,26.34a8,8,0,0,1,3-.82,6.56,6.56,0,0,1,3,.44,20,20,0,0,0-3,0C18.23,26,17.25,26.21,16.23,26.34Z"/><path class="cls-8" d="M16.61,27.42a10.62,10.62,0,0,1,2.62-.32c.88,0,1.73,0,2.63,0a7.85,7.85,0,0,1-2.62.45A21.07,21.07,0,0,1,16.61,27.42Z"/><path class="cls-8" d="M17.36,28.65a12.25,12.25,0,0,1,2.15-.26c.72,0,1.42-.07,2.16,0a5.49,5.49,0,0,1-2.14.5A8,8,0,0,1,17.36,28.65Z"/></g><path class="cls-9" d="M16,33.36c1.65,2.74,6.65,2.2,7.69-.81.24-.71-.88-1-1.12-.31a2.33,2.33,0,0,1-1,1.16A4,4,0,0,1,20,34a3,3,0,0,1-3-1.17.58.58,0,0,0-1,.58Z"/><path class="cls-9" d="M19.75,35a86.47,86.47,0,0,1,.46,10.8.58.58,0,0,0,1.16,0A86.47,86.47,0,0,0,20.91,35c-.1-.72-1.25-.73-1.16,0Z"/><path class="cls-1" d="M6.68,59.64a13,13,0,0,0-.54,5.26c.49,1.52-.7-.05-1.2-.4-.17.7-.33,3.24-1.19,3.39-.65.11,0-2.22-.09-2.84C3.25,65.85,2.49,68,2,67.79c-.6,0,.35-2.39.6-3-.29.29-1.67,2.51-2.1,1.84-.21-.33,1.09-2,1.4-2.42-.46.41-1.78,1.52-1.88,1-.3-.45,2.35-4.32,2.38-6.77"/><path class="cls-10" d="M2.23,59c1.4.67,3,.61,4.46,1.11.49.17.7-.61.21-.78a14.48,14.48,0,0,0-2.17-.48,8,8,0,0,1-2.09-.55.41.41,0,0,0-.55.14.43.43,0,0,0,.14.56Z"/><path class="cls-2" d="M39.15,58.29c-1.57.71-2.63.66-4.21,1.35-4-8.31-5.61-11.86-6.85-17.17L26.73,32C34.65,31.89,35.5,42.75,39.15,58.29Z"/><path class="cls-1" d="M34.24,57.82a13,13,0,0,1,.54,5.26c-.49,1.52.71,0,1.2-.4.17.7.33,3.24,1.19,3.39.66.11,0-2.22.09-2.84.42.8,1.17,2.94,1.66,2.74.6,0-.35-2.39-.59-3,.28.29,1.66,2.51,2.1,1.84.21-.33-1.1-2-1.41-2.42.46.41,1.78,1.52,1.88,1,.3-.45-2.35-4.32-2.38-6.77"/><path class="cls-10" d="M39,58.25a8,8,0,0,1-2.09.55,14.48,14.48,0,0,0-2.17.48c-.49.17-.28.95.21.78,1.46-.5,3.06-.44,4.46-1.11a.42.42,0,0,0,.14-.56.41.41,0,0,0-.55-.14Z"/><path class="cls-2" d="M68.09,62.85c0-3.81.14-17.6-.37-23.72-.86-5.59-3.11-5.5-8.65-6-6.06-.52-8.49.46-9.48,6.74-.59,7.4-.57,32-.91,35.1C48.68,75,59,73.9,68.09,62.85Z"/><g class="cls-7"><polyline class="cls-9" points="60.41 40.2 60.52 45.62 65.72 45.67 65.57 40.23 60.41 40.2"/></g><path class="cls-9" d="M60.38,40.82h5.19a.58.58,0,0,0,0-1.16H60.38a.58.58,0,0,0,0,1.16Z"/><path class="cls-11" d="M63.15,41.77v2.77"/><path class="cls-11" d="M64.53,43.16H61.76"/><path class="cls-4" d="M65.75,26.73c2.53.59,3.92,2.31,2,4.74-1.41,1.74-4.25,1.15-5.43-1.5"/><path class="cls-5" d="M53.86,24.08c-2.51-.66-3,2.77,0,2.31"/><path class="cls-5" d="M66.09,25.93c3.58-.35,2.2,3.34-.11,2.07"/><path class="cls-5" d="M54.31,19.54c-1.54,6.9-1.28,11.63,5.13,12.19,6,.52,7.38-2.47,7.24-10.54"/><path class="cls-5" d="M61.4,33.86c.12-1.14.29-2.28.31-3.43a2.31,2.31,0,0,0-4.62,0c0,1.08-.16,2.14-.28,3.21.71.82,1.39,1.67,2,2.55A14.53,14.53,0,0,1,61.4,33.86Z"/><path class="cls-4" d="M53.63,20a23.11,23.11,0,0,0,0,5.54c.69-1.85,2-4.27,2.65-6"/><path class="cls-4" d="M65.17,21.19A27.86,27.86,0,0,0,66,27.31a25.27,25.27,0,0,0,1.5-5.08"/><path class="cls-3" d="M53.22,24l2.23,3,.31.43a.31.31,0,0,0,.4.1.3.3,0,0,0,.1-.4l-2.23-3-.31-.43a.29.29,0,0,0-.39-.1.29.29,0,0,0-.11.39Z"/><path class="cls-3" d="M62.62,28.37l3.51-2.23.49-.31c.32-.2,0-.7-.29-.5l-3.51,2.23-.49.31c-.31.2,0,.7.29.5Z"/><path class="cls-3" d="M59.51,25.81c-1.84-.23-4.15-.23-4.5,2.31s1.39,3.58,3.69,3.81c2.54.23,4.51.23,4.74-2.54S61.82,26,59.51,25.81"/><g class="cls-7"><path class="cls-8" d="M56.4,27.27a9.19,9.19,0,0,1,2.82-.18,6.64,6.64,0,0,1,2.72.8c-.94-.14-1.84-.28-2.76-.34S57.34,27.43,56.4,27.27Z"/></g><g class="cls-7"><path class="cls-8" d="M56.73,28.43a10.05,10.05,0,0,1,2.39,0,8.84,8.84,0,0,1,2.31.6,18.62,18.62,0,0,1-2.37-.14A13.75,13.75,0,0,1,56.73,28.43Z"/></g><g class="cls-7"><path class="cls-8" d="M56.56,29.35c.82,0,1.59.17,2.37.26a16.33,16.33,0,0,1,2.34.51,9.71,9.71,0,0,1-2.41-.05A7.6,7.6,0,0,1,56.56,29.35Z"/></g><path class="cls-2" d="M53.86,20.27c-.33-11.56,17.69-8,13.5,2.54"/><path class="cls-6" d="M53.51,20.5a119.67,119.67,0,0,1,14.2,2.19"/><path class="cls-9" d="M56,33.49l2.54,3a.57.57,0,0,0,.81,0L62.11,34c.55-.5-.27-1.31-.81-.81l-2.77,2.54h.81l-2.54-3a.57.57,0,0,0-.81,0,.58.58,0,0,0,0,.81Z"/><path class="cls-2" d="M40.13,60c1.57.71,2.64.66,4.22,1.35,4-8.31,5.6-11.86,6.84-17.16l1.36-10.45C44.63,33.63,43.78,44.49,40.13,60Z"/><path class="cls-1" d="M44.71,56.79c-.73,2.93-.69,4.8-.53,5.26.49,1.52-.71,0-1.2-.4-.17.7-.34,3.24-1.19,3.39-.66.11,0-2.22-.09-2.84-.42.81-1.17,2.94-1.66,2.74-.6,0,.35-2.39.59-2.95-.29.28-1.66,2.51-2.1,1.83-.21-.32,1.09-2,1.41-2.42-.46.42-1.78,1.53-1.88,1-.3-.45,2.35-4.31,2.38-6.77"/><path class="cls-10" d="M39.85,60.69c1.4.67,3,.62,4.45,1.12.49.17.71-.62.22-.79a14.86,14.86,0,0,0-2.18-.47A8.2,8.2,0,0,1,40.26,60a.43.43,0,0,0-.56.15.41.41,0,0,0,.15.55Z"/><path class="cls-2" d="M77.48,60.45c-1.57.71-2.63.66-4.21,1.35-4-8.31-5.61-11.86-6.85-17.16L65.06,34.2C73,34.06,73.83,44.91,77.48,60.45Z"/><path class="cls-1" d="M73.32,61.8a13,13,0,0,1,.54,5.26c-.49,1.53.7,0,1.2-.39.17.7.33,3.24,1.19,3.38.65.11,0-2.22.09-2.83.41.8,1.17,2.93,1.66,2.74.6,0-.35-2.39-.6-3,.29.29,1.67,2.51,2.1,1.83.21-.32-1.09-2-1.4-2.41.46.41,1.78,1.52,1.88,1,.3-.45-2.35-4.31-2.38-6.77"/><path class="cls-10" d="M77.36,60.41a8.39,8.39,0,0,1-2.09.56,14.48,14.48,0,0,0-2.17.48c-.49.17-.28.95.21.78,1.46-.5,3.06-.45,4.46-1.12a.41.41,0,0,0,.14-.55.42.42,0,0,0-.55-.15Z"/><path class="cls-3" d="M50.42,76.47s.44-17.23,2.47-19.18S51.52,44.4,49.68,44.38s-14-.41-14-.41h-.58l-3.68.41s-6.71,7.41-4.08,16.08L28,61.58,36.3,73.73Z"/><path class="cls-3" d="M46.88,44.31c-.62.93-7.45,6-12.62.3"/><path class="cls-3" d="M28,61.58c.35,6.23-.15,14.89-.15,14.89,5.76.32,17.7.34,22.55,0"/><path class="cls-3" d="M36,46.66c-1.67-5.12-4.23-10.4-2.54-16,1.06-4.34,7-5.38,10.39-4,10,4.16,2.67,16-.92,21.13"/><path class="cls-12" d="M43.54,30.88a18.43,18.43,0,0,0-5.69-.41,3.45,3.45,0,0,0-3,2.05.7.7,0,0,1-.33.33c-.68,5.11.38,8.49,5.73,8.95,4.19.37,5.44-1.22,6.18-4.85C46.71,34,46.41,31.63,43.54,30.88Z"/><path class="cls-2" d="M40.31,36.85c-2.62.23-4.69.57-4.83,3.11s1.93,2.66,4.42,2.77c2.76.24,5.65.58,5.52-2.65-.14-2.19-2.49-3.23-5.11-3.23"/><g class="cls-13"><path class="cls-9" d="M37.16,38.92a6.36,6.36,0,0,1,3.32-.78,6,6,0,0,1,1.69.34,7.81,7.81,0,0,1,1.55.72,24.27,24.27,0,0,0-3.27-.55A16.17,16.17,0,0,0,37.16,38.92Z"/><path class="cls-9" d="M37,40a11.7,11.7,0,0,1,1.65-.41,8.21,8.21,0,0,1,1.72-.14,7,7,0,0,1,3.29.93c-.57-.09-1.12-.2-1.66-.28a15.3,15.3,0,0,0-1.65-.14C39.21,39.88,38.09,40,37,40Z"/><path class="cls-9" d="M37,40.53c1.11.14,2.18.32,3.26.35.54,0,1.08,0,1.63,0s1.1-.07,1.66-.07a8.08,8.08,0,0,1-3.31.57A7.73,7.73,0,0,1,37,40.53Z"/></g><path class="cls-2" d="M34.47,34.65a5.82,5.82,0,0,1,.13-2.41,4.15,4.15,0,0,1,1.47-2.13,5.35,5.35,0,0,1,2.44-1,10.92,10.92,0,0,1,2.49,0,16.82,16.82,0,0,1,2.39.47,5.1,5.1,0,0,1,2.3,1.28,4,4,0,0,1,1,2.41,8.59,8.59,0,0,1-.2,2.39c-.34-1.51-.66-3.14-1.65-3.88A4.62,4.62,0,0,0,43,31.09a17.09,17.09,0,0,0-2.18-.35,7.2,7.2,0,0,0-4.06.42A5.27,5.27,0,0,0,34.47,34.65Z"/><path class="cls-3" d="M19.41,70.63c1.57.71,2.64.67,4.21,1.36,4-8.31,5.61-11.86,6.85-17.17l1.36-10.44C23.91,44.24,23.06,55.1,19.41,70.63Z"/><path class="cls-3" d="M61.63,70.63c-1.57.71-2.63.67-4.21,1.36-4-8.31-5.61-11.86-6.84-17.17L49.22,44.38C57.13,44.24,58,55.1,61.63,70.63Z"/><path class="cls-1" d="M21.34,76.93c.32.86.47,1.1.92,1a7.89,7.89,0,0,0-.05-3,11.32,11.32,0,0,1,1.63-3.07,7.92,7.92,0,0,0-4.69-1.32,7.91,7.91,0,0,1-.23,3.37c-.62.42-2.73,4-2.08,4.29.34.21,1-1,1.26-1.29-.41.39-.66,1.9-.37,2s1-1.19,1.25-1.64c-.24.46-.69,1.88-.38,2.06s1-1.16,1.37-1.76c-.25.49-.57,2-.24,2.14s1.14-1.51,1.61-2.81Z"/><path class="cls-10" d="M24,71.56a16.63,16.63,0,0,0-4.83-1.35c-.52,0-.51.77,0,.81a16.61,16.61,0,0,1,4.62,1.32.4.4,0,0,0,.49-.29.39.39,0,0,0-.28-.49Z"/><path class="cls-1" d="M60,77.3c-.31.9-.47,1.16-.93,1a8.23,8.23,0,0,1,0-3,11.27,11.27,0,0,0-1.75-3.13,8.09,8.09,0,0,1,4.81-1.46,8.07,8.07,0,0,0,.32,3.47c.64.42,2.9,4.08,2.23,4.38-.35.23-1.06-1-1.32-1.31.43.4.72,2,.42,2.07s-1-1.2-1.32-1.66c.26.46.75,1.93.43,2.12S61.75,78.58,61.4,78c.27.5.64,2.07.29,2.2S60.48,78.64,60,77.3Z"/><path class="cls-10" d="M62,70.21A16,16,0,0,0,57,71.75a.41.41,0,0,0-.15.57.43.43,0,0,0,.57.15A14.81,14.81,0,0,1,62,71.05a.44.44,0,0,0,.42-.42.42.42,0,0,0-.42-.42Z"/><path class="cls-1" d="M35.33,45.89a9,9,0,0,0,9.36.34c.63-.38.06-1.38-.58-1a7.87,7.87,0,0,1-8.19-.35c-.61-.43-1.19.57-.59,1Z"/><path class="cls-1" d="M39.43,47.24c0,9-.34,18.08-.34,27.12a.58.58,0,0,0,1.15,0c0-9,.34-18.08.35-27.12a.58.58,0,0,0-1.16,0Z"/><path class="cls-1" d="M32.85,33.26l1.41.23.21,0a.29.29,0,0,0,.15-.56l-1.41-.23-.2,0a.31.31,0,0,0-.36.2.3.3,0,0,0,.2.36Z"/><path class="cls-1" d="M33,34.72l1.25-.2.18,0a.29.29,0,0,0,.2-.35.3.3,0,0,0-.36-.21l-1.24.21-.18,0a.3.3,0,0,0-.2.36.29.29,0,0,0,.35.2Z"/><path class="cls-1" d="M46.44,34.38c.76,0,1.53-.05,2.3,0h.08a.29.29,0,0,0,0-.58H47.63l-1.19,0a.29.29,0,1,0,0,.57Z"/><path class="cls-1" d="M46.4,35.34l1.81.5.26.07a.29.29,0,1,0,.16-.55l-1.82-.51-.26-.07a.29.29,0,0,0-.35.2.29.29,0,0,0,.2.36Z"/><path class="cls-12" d="M40.49,35.29c1.5-.21,2.17,1.42,3.78,1.56s2-1,2.12-2.51c.25-3.73-3.66-2.14-5.75-1.82h-.1c-2.08-.38-5.94-2.09-5.8,1.64,0,1.52.54,2.67,2,2.57s2.33-1.69,3.83-1.44"/><path class="cls-1" d="M40.49,35.72c1.31-.13,2.18,1.27,3.43,1.51a2.22,2.22,0,0,0,2.69-1.59,3.84,3.84,0,0,0-.29-3.37,2.76,2.76,0,0,0-2.46-.77,25.51,25.51,0,0,0-3,.55,2.85,2.85,0,0,1-1.19-.17c-.51-.13-1-.27-1.55-.37a4.15,4.15,0,0,0-2.76.18,2.8,2.8,0,0,0-1,2.79c.12,1.34.71,2.65,2.23,2.69a3.63,3.63,0,0,0,2.06-.68,2.92,2.92,0,0,1,2-.77c.55.07.55-.79,0-.86-1.13-.15-1.88.59-2.79,1.1a2.2,2.2,0,0,1-1.64.29,1.4,1.4,0,0,1-.89-1.15c-.19-.78-.33-2.13.47-2.64a3.17,3.17,0,0,1,2.19-.1c.8.16,1.58.42,2.38.56a6.8,6.8,0,0,0,2.3-.37,5.09,5.09,0,0,1,2.42-.11c.88.27,1,1.18.9,2a2.7,2.7,0,0,1-.55,1.67,1.62,1.62,0,0,1-1.78.15c-1.09-.48-1.82-1.52-3.13-1.39-.55.06-.56.93,0,.87Z"/></svg>