<svg id="Layer_1" data-name="Layer 1" xmlns="http://www.w3.org/2000/svg" viewBox="0 0 80 80"><defs><style>.cls-1{fill:#2c3d63;}.cls-2{fill:#f7cfba;}.cls-3{fill:#fadac6;}.cls-4{fill:#fff;}</style></defs><title>cuci tangan_asets covid apps</title><circle class="cls-1" cx="40" cy="40" r="36" transform="translate(-12.26 61.65) rotate(-67.5)"/><path class="cls-2" d="M78.05,62a51.4,51.4,0,0,1,1.4,7.3c0,.34-.33.72-.66.84a1.58,1.58,0,0,1-1,0c-1.74-.57-2.61-2.47-3.21-4.2s-1-3.28-1.48-5a11.89,11.89,0,0,0-2.42-4.29q-3.29-4.41-6.91-8.52A75.68,75.68,0,0,1,75.17,70.19c.28.83.47,1.9-.22,2.44a1.49,1.49,0,0,1-1.73-.09,4.37,4.37,0,0,1-1.13-1.45q-2.32-4-4.64-8.06c-2.28-4-6.14-7.14-8.49-11.06,4,6.14,8.17,12.4,11.38,19a2.06,2.06,0,0,1,.28,1.64,1.39,1.39,0,0,1-1.18.76c-1.15.09-2.11-.8-2.87-1.66a70.72,70.72,0,0,1-5.7-7.82L55,55c2.39,3.62,4.18,7.29,3.17,11.77a1.75,1.75,0,0,1-.48,1c-.6.53-1.57.1-2.1-.51-1.67-1.89-1.27-4.81-2.24-7.13a21.29,21.29,0,0,0-2.31-3.41c-.65-1-1.14-2-1.88-2.91a48.94,48.94,0,0,0-5.38-5.1,16.85,16.85,0,0,1-4.1-5.2c-.81-1.77-.74-3.6-1-5.48-.48-3.54-2.69-5.22-5.18-7.59q-4-3.78-8.15-7.32a6.54,6.54,0,0,1-1.29-1.34c-1.65-2.59-.59-7.2,1.11-9.48C27.78,8.83,32.4,6,36.85,6.76a2,2,0,0,1,.79.27,2.17,2.17,0,0,1,.51.58c2.05,3,3.76,6.27,5.7,9.38s4.25,5.76,6.4,8.66a2.33,2.33,0,0,0,.56.61,2.67,2.67,0,0,0,.78.32c3.66,1,7.13,1.88,10.44,3.81,6,3.51,10.48,8.5,15,13.7a1.79,1.79,0,0,1,.62,1.49,1.46,1.46,0,0,1-1,.89c-3.12,1.06-5.39-1.51-7.49-3.32a2.4,2.4,0,0,0-1.83-.85c.62.82,1,1.91,1.54,2.74l.79,1.11,1.54,2.25c1,1.5,2,3,2.91,4.6A39.67,39.67,0,0,1,78.05,62Z"/><path class="cls-3" d="M24,43c1.08,1.49,2.11,3,3.18,4.52l5.66,7.89A13.64,13.64,0,0,0,34.14,57a24.59,24.59,0,0,0,3.1,2.36c1.08.77,2.11,1.64,3.16,2.48,2.8,2.26,6.35,3,9.67,4.29a4.61,4.61,0,0,0,1.88.43,1.18,1.18,0,0,0,1.16-.76,1.34,1.34,0,0,0-.27-1c-1.35-2.17-4.49-2.8-6.74-3.7l-.55-.51-2.69-2.53-1.31-1.23a4.68,4.68,0,0,1-.54-.55c-.1-.13-.26-.31-.23-.45s.36-.4.29-.45c1,.76,2.11,1.49,3.17,2.24.87.62,1.74,1.24,2.62,1.85a7.2,7.2,0,0,0,1.21.86c.08,0,2.91,1.24,9.48,3.74,1.16.44,4.05,1.81,5.33,1.07,2-1.18-1.12-2.91-2-3.38-1.27-.71-2.58-1.36-3.89-2-1.81-.89-3.64-1.75-5.47-2.58l-2.63-2.07L46.27,53c-.31-.24-.62-.48-.92-.73s-.59-.4-.6-.56,0-.07,0-.11a1,1,0,0,0,.19-.41c1.19.64,2.31,1.52,3.44,2.26l4.06,2.68c2.33,1.22,4.72,2.34,7.14,3.33a24.27,24.27,0,0,0,5.5,1.74c.83.13,1.54.11,1.9-.77.45-1.09-.45-1.55-1.23-2.08-1-.69-2-1.33-3.08-2-1.45-.88-2.9-1.75-4.36-2.59l-9.67-7.06.49-.45s7.41,4,13.77,8.2c1.11.74,5.32,4.19,6.63,2.51,1.45-1.86-6.29-7.16-7.72-8.23L61,48.26l-5.54-3.55L52.9,43.05a5.37,5.37,0,0,1-.83-.64,4.58,4.58,0,0,0-.75-.56c-.08-.06-.54-.53-.56-.53,2.47.37,4.39,2.17,6.81,2.61a4.69,4.69,0,0,0,4.08-1.32,1.16,1.16,0,0,0,.36-1.1c-.21-.76-1.95-1.18-2.57-1.51-1.09-.58-2.13-1.23-3.16-1.9-1.94-1.26-3.81-2.61-5.8-3.79a16.3,16.3,0,0,0-3-1.46A20,20,0,0,0,44,32.14c-1.89-.28-3.82-.32-5.72-.52-1.61-.17-3.21.09-4.81-.27a14.8,14.8,0,0,1-4.35-2.3q-6.69-4.2-13.26-8.58c-2.19-1.46-4-3.68-6.54-4.43-1.56-.46-6.29,1.79-8.09,5.82-1.94,4.34-1.46,8.81.48,10.58,2.37,2.15,6.11,1.87,9.13,2.91,1.92.66,3.81,1.39,5.68,2.14,1.54.63,3.27.94,4.63,2A17.27,17.27,0,0,1,24,43Z"/><circle class="cls-4" cx="68.48" cy="26.09" r="5.63" transform="translate(-3.68 13.32) rotate(-10.82)"/><circle class="cls-4" cx="75.84" cy="31.33" r="4.12" transform="translate(7.31 76.47) rotate(-55.82)"/><circle class="cls-4" cx="55.24" cy="36.1" r="4.63" transform="translate(-6.68 13.29) rotate(-12.94)"/><circle class="cls-4" cx="46.19" cy="33.61" r="3.35"/></svg>