<svg id="Layer_1" data-name="Layer 1" xmlns="http://www.w3.org/2000/svg" viewBox="0 0 80 80"><defs><style>.cls-1{fill:#2c3d63;}.cls-2{fill:#fff;}.cls-3,.cls-7,.cls-8{fill:none;stroke:#fff;stroke-linecap:round;}.cls-3{stroke-linejoin:round;stroke-width:0.55px;}.cls-4{fill:#fcdcc8;}.cls-5{fill:#231f20;}.cls-6{fill:#fadac6;}.cls-7,.cls-8{stroke-miterlimit:10;}.cls-7{stroke-width:0.31px;}.cls-8{stroke-width:0.27px;}</style></defs><title>jarak_asets covid apps</title><circle class="cls-1" cx="40" cy="40" r="36" transform="translate(-12.26 61.65) rotate(-67.5)"/><path class="cls-2" d="M.42,50.09C7.34,59.2,19,74.43,30.53,75l1.49.07c1.67.09,2.51-10.63,2.45-12.28-.26-7.17-.73-17.3-1.36-20s-.56-7.16-3.65-8.69c-3.36-1.67-7.17-1.94-10.95-2-4.24-.06-8.73.11-12.73,1.46a8.38,8.38,0,0,0-2.9,1.52C1.17,36.63.8,38.91.52,41,.47,41.4.25,44.58,0,48.71a2,2,0,0,0,.41,1.37Z"/><path class="cls-2" d="M48.24,76c7.59-2.16,15.18-7.94,21.31-12.87,4.3-3.47,6.75-14.89,9.31-19.77a19.56,19.56,0,0,0,.76-1.83,5.46,5.46,0,0,0-.79-5.39,10.29,10.29,0,0,0-1.46-1.49c-4.64-3.79-13-3.29-18.45-2.39a38.93,38.93,0,0,0-4.77,1.1c-1.55.47-3.23,1-4.1,2.39A6.74,6.74,0,0,0,49.29,38C47.78,44.88,48,52.43,47.34,59.51c0,.42.71,13.43.43,16.14a.36.36,0,0,0,.46.38Z"/><path class="cls-2" d="M50.93,21.3v2a.28.28,0,0,0,.44.22l1.38-1a.28.28,0,0,0,0-.45l-1.38-1A.28.28,0,0,0,50.93,21.3Z"/><path class="cls-2" d="M27.25,22.51l1.38,1a.28.28,0,0,0,.44-.22v-2a.28.28,0,0,0-.44-.22l-1.38,1A.28.28,0,0,0,27.25,22.51Z"/><line class="cls-3" x1="28.01" y1="22.29" x2="51.99" y2="22.29"/><path class="cls-4" d="M69.36,29.34c0,.16,0,.3.07.42a2.54,2.54,0,0,0,.37,1c.48.69,1.48.79,2.14,1.31a.46.46,0,0,1,.21.3c0,.2-.16.35-.33.45-3.3,2.07-8.62,2.79-10.57-1.37,1-.47,2.2-.65,2.57-1.85.31-1-.17-2.41.08-3.48.36-1.55,2.47-4.8,4.27-3.3C69.43,23.93,69.15,27.84,69.36,29.34Z"/><path class="cls-5" d="M69.13,15.76a6.32,6.32,0,0,0,.4-3.23c-.42-1.8-2.33-2.85-4.14-3.21a6.56,6.56,0,0,0-3.57,0,11.44,11.44,0,0,0-2.45,1.39l-2.16,1.46A9.66,9.66,0,0,0,55,14c-1.54,1.95-.93,4.75,0,6.82a28.41,28.41,0,0,0,5.4,7.34l5.22-4.74a14.63,14.63,0,0,0,2.89-3.2A5.68,5.68,0,0,0,69.13,15.76Z"/><path class="cls-5" d="M64.43,29.4A12.67,12.67,0,0,0,72,19.61,5.85,5.85,0,0,0,71.55,16a3,3,0,0,0-3.08-1.61A20.38,20.38,0,0,0,64.43,29.4Z"/><path class="cls-4" d="M55.79,18.41c-.19-2.71,3-4.28,6.23-4.49s6.61.87,6.8,3.57c0,0,1.33,8-2.73,12.62a4,4,0,0,1-5.84.41C55.58,26.47,55.79,18.41,55.79,18.41Z"/><path class="cls-4" d="M70.72,21.67c-.58-1.83-2.25-.49-2.25-.49l-.25,4.35C69.43,25.67,71.41,23.85,70.72,21.67Z"/><path class="cls-5" d="M61,17.79c-.64-.25-1.28-.53-1.91-.82-3.26-1.5-3.2-2.8.64-3.79h0c2.66-.69,6.3-2.39,8.44.35a6.53,6.53,0,0,1,1,2.5,8.1,8.1,0,0,1,.31,4.1A42.68,42.68,0,0,1,61,17.79Z"/><path class="cls-2" d="M59.48,30.55h0a4.59,4.59,0,0,0,4.56.92,5.21,5.21,0,0,0,2-1.2c.53-.53.94-1.07,1.43-1.52h0a8,8,0,0,1-1.49-5.84l0-.27c-.77-.18-1.63-.36-2.5-.5a9.81,9.81,0,0,0-7.11,1.5A11.39,11.39,0,0,0,59.48,30.55Z"/><path class="cls-5" d="M19.54,12.2C15.21,8.82,9.27,10.9,7.33,15.82a24.51,24.51,0,0,1-3.58,6.25C.52,26.14,1.32,33.53,10.63,32.78a47.54,47.54,0,0,1,5.6-.12c3.57.13,8.08-.22,8.41-5.8.12-2.05-.57-3.91-.5-5.81C24.26,17.57,23.71,13.07,19.54,12.2Z"/><path class="cls-6" d="M18.94,28.46a3.53,3.53,0,0,0,0,.92c.3,1.39,1.34,1.51,1.8,2.64a1.14,1.14,0,0,1-.05.81,4.69,4.69,0,0,1-4.48,3.07A4.69,4.69,0,0,1,12,32.52c2.7-1.23,1.34-4.75,1.13-6.87a1.06,1.06,0,0,1,0-.5c.14-.3.52-.39.86-.43,1.32-.15,4.13-.73,4.81.91A6.43,6.43,0,0,1,18.94,28.46Z"/><path class="cls-6" d="M22,17c-.16-5.07-12.34-4.68-12.18.39,0,0-.49,7.58,3.77,11.57a4.18,4.18,0,0,0,5.89-.19C23.47,24.56,22,17,22,17Z"/><path class="cls-6" d="M8.5,21.53c.36-1.77,2.06-.68,2.06-.68l.65,4.06C10.09,25.15,8.06,23.64,8.5,21.53Z"/><path class="cls-2" d="M22.23,23.12a8.52,8.52,0,0,1-2.76,6,4.56,4.56,0,0,1-5.79.19,6.92,6.92,0,0,0-2.36-1.72c-.23,0-.54-2.44-.76-4.05a31.46,31.46,0,0,1,4.31-1.77,7.64,7.64,0,0,1,6.54.84C21.83,22.84,22.11,23.06,22.23,23.12Z"/><path class="cls-5" d="M18.42,12.4S17.21,20,9.94,20.58C5.6,16.08,14.08,7.9,18.42,12.4Z"/><path class="cls-5" d="M22.24,19.29c-3.33-2-4.75-6.55-4.75-6.55C21.48,11.85,24,15.64,22.24,19.29Z"/><path class="cls-7" d="M10.71,23.53a11.3,11.3,0,0,0-.68-3"/><path class="cls-8" d="M69,20.85c-.44,1.57-3.32,2-3.32,2"/><path class="cls-8" d="M68.42,25.54a3.2,3.2,0,0,1-1.88,1.89"/></svg>