<svg id="Layer_1" data-name="Layer 1" xmlns="http://www.w3.org/2000/svg" viewBox="0 0 80 80"><defs><style>.cls-1{fill:#2c3d63;}.cls-2{fill:#f8f8f8;}.cls-3{fill:#fcdcc8;}.cls-4{fill:#231f20;}.cls-5{fill:#fff;}.cls-6{fill:#eee;}.cls-7{fill:#fadac6;}.cls-8{fill:#ba651d;}.cls-9{fill:none;stroke:#fff;stroke-miterlimit:10;stroke-width:0.19px;}</style></defs><title>kerumunan_asets covid apps</title><circle class="cls-1" cx="40" cy="40" r="36" transform="translate(-12.26 61.65) rotate(-67.5)"/><path class="cls-2" d="M45.44,49.51c.49-1.91,1-19.61,1.46-21.51.59-2.33.77-5.71,3.07-7.1a13.72,13.72,0,0,1,7.41-1.62c.26,0,.52,0,.77,0a6.4,6.4,0,0,1,1.45.19,8.94,8.94,0,0,1,2.93,1.12c2.29,1.4,2.47,4.77,3.06,7.1.48,1.91,1,19.61,1.44,21.52l-3.15-.05s0,.28,0-.15C60.62,49.69,45.44,49.51,45.44,49.51Z"/><path class="cls-3" d="M58.27,18.16a1.06,1.06,0,0,0,0,.19,1.14,1.14,0,0,0,.16.48c.22.31.68.36,1,.59,0,0,.09.08.09.14s-.07.16-.15.21c-1.5.94-3.92,1.26-4.81-.63.45-.21,1-.29,1.17-.84s-.07-1.1,0-1.59c.16-.7,1.12-2.18,1.94-1.49C58.31,15.7,58.18,17.48,58.27,18.16Z"/><path class="cls-4" d="M58.17,12a2.77,2.77,0,0,0,.18-1.47,2.25,2.25,0,0,0-1.89-1.46,2.88,2.88,0,0,0-1.62,0,4.85,4.85,0,0,0-1.11.62l-1,.67a4.29,4.29,0,0,0-1,.85,3.09,3.09,0,0,0,0,3.1,12.94,12.94,0,0,0,2.46,3.34l2.38-2.16A6.67,6.67,0,0,0,57.88,14,2.6,2.6,0,0,0,58.17,12Z"/><path class="cls-4" d="M56,18.19a5.8,5.8,0,0,0,3.44-4.46,2.65,2.65,0,0,0-.2-1.65,1.34,1.34,0,0,0-1.4-.73A9.26,9.26,0,0,0,56,18.19Z"/><path class="cls-3" d="M52.1,13.18c-.09-1.23,1.36-1.94,2.83-2s3,.4,3.1,1.63c0,0,.6,3.62-1.24,5.74a2.08,2.08,0,0,1-1.29.68,2,2,0,0,1-1.37-.5C52,16.85,52.1,13.18,52.1,13.18Z"/><path class="cls-3" d="M58.89,14.67c-.26-.84-1-.22-1-.22l-.12,2A1.36,1.36,0,0,0,58.89,14.67Z"/><path class="cls-4" d="M54.46,12.9c-.29-.11-.58-.24-.86-.37-1.49-.68-1.46-1.27.29-1.73h0c1.21-.31,2.87-1.08,3.84.16a2.92,2.92,0,0,1,.46,1.14A3.62,3.62,0,0,1,58.33,14,19.51,19.51,0,0,1,54.46,12.9Z"/><path class="cls-5" d="M53.78,18.71h0a2.06,2.06,0,0,0,2.08.42,2.31,2.31,0,0,0,.88-.54c.25-.24.43-.49.66-.7h0a3.6,3.6,0,0,1-.68-2.65v-.13c-.35-.08-.74-.16-1.14-.23a4.47,4.47,0,0,0-3.23.69A5.15,5.15,0,0,0,53.78,18.71Z"/><path class="cls-6" d="M22.52,18.6a18.55,18.55,0,0,0-6.87.88,4.25,4.25,0,0,0-1.57.94A5.86,5.86,0,0,0,12.81,24c-.08.69-1.16,24-.7,24,.21,0,2.27-6.31,2.28-6.41s-.13,6.47-.14,6.49l7.18.1c1.92,0,4-6.36,5.89-6.34.86,0,3.61.48,3.91-.28a.29.29,0,0,0,0-.16c-.06-2.39-.37-14-.85-16.32-.35-1.66-.31-4.37-2-5.31A12.15,12.15,0,0,0,22.52,18.6Z"/><path class="cls-7" d="M23.16,16.91a1.7,1.7,0,0,0,0,.45c.13.67.67.74.89,1.3a.53.53,0,0,1,0,.39,2.47,2.47,0,0,1-2.38,1.42,2.41,2.41,0,0,1-2.16-1.71c1.43-.55.78-2.27.71-3.3a.48.48,0,0,1,0-.24c.08-.15.28-.18.46-.2.69,0,2.16-.29,2.49.51A2.93,2.93,0,0,1,23.16,16.91Z"/><path class="cls-7" d="M25,11.43c0-2.46-5.9-2.46-5.9,0,0,0-.36,3.66,1.64,5.65a2,2,0,0,0,2.85,0C25.59,15.09,25,11.43,25,11.43Z"/><path class="cls-7" d="M18.39,13.39c.21-.85,1-.29,1-.29l.25,2A1.36,1.36,0,0,1,18.39,13.39Z"/><path class="cls-5" d="M25,14.38a4.11,4.11,0,0,1-1.43,2.84,2.21,2.21,0,0,1-2.8,0c-.39-.34-.64-.72-1.11-.87a7.6,7.6,0,0,1-.31-2,14,14,0,0,1,2.11-.79,3.67,3.67,0,0,1,3.15.51C24.82,14.23,25,14.34,25,14.38Z"/><path class="cls-4" d="M25.13,12.36C24.07,12,23.05,10.89,22,10.55a2.51,2.51,0,0,0-1.48-.1c-.26.09-.49.26-.76.33s-.62,0-.69-.29a5.32,5.32,0,0,1,1.21-1.71,2.47,2.47,0,0,1,1.94-.64,6.75,6.75,0,0,1,1,.29c.66.19,1.35.2,2,.37a2,2,0,0,1,1.51,1.25,1.44,1.44,0,0,0,.17.48,3.1,3.1,0,0,0,.34.27c.36.36.06,1-.35,1.31A1.77,1.77,0,0,1,25.13,12.36Z"/><path class="cls-4" d="M13.16,20.71A3.59,3.59,0,0,0,7.6,22.36,11.15,11.15,0,0,1,6,25.2c-1.47,1.85-1.11,5.21,3.13,4.87A21.49,21.49,0,0,1,11.65,30c1.63.06,3.68-.1,3.83-2.64.06-.93-.26-1.78-.23-2.64C15.31,23.16,15.05,21.11,13.16,20.71Z"/><path class="cls-5" d="M12.58,29.7a17.78,17.78,0,0,0-6.43,1A3.58,3.58,0,0,0,4,33.45c-.36,1.77-1,3.49-1.31,5.28a54.21,54.21,0,0,0-.74,10.1A10.33,10.33,0,0,0,2.31,52c-.13-.38,1.31,3.62,1.33,3.54s1.56-.14,1.55-.12c2.25,0,7,8.63,8.47,10.35,1.82,2.15,3.42,3.92,5.23,3.89.81,0,2.31-17.85,2.57-18.58,0,0,1.95,13.32,1.94,13.26-.13-2.24-2.7-26.53-3.22-28.71-.38-1.54-.42-4.1-2-4.92A11.35,11.35,0,0,0,12.58,29.7Z"/><path class="cls-7" d="M12.89,28.1a1.54,1.54,0,0,0,0,.43c.13.63.61.68.82,1.2a.5.5,0,0,1,0,.36,2.08,2.08,0,0,1-4-.14c1.23-.56.61-2.16.51-3.12a.58.58,0,0,1,0-.23c.06-.14.24-.18.39-.19.6-.07,1.88-.34,2.19.41A2.91,2.91,0,0,1,12.89,28.1Z"/><path class="cls-7" d="M14.28,22.91c-.07-2.3-5.61-2.13-5.54.18,0,0-.22,3.45,1.71,5.26a1.89,1.89,0,0,0,2.68-.09C15,26.33,14.28,22.91,14.28,22.91Z"/><path class="cls-7" d="M8.14,25c.16-.8.93-.3.93-.3l.3,1.84A1.27,1.27,0,0,1,8.14,25Z"/><path class="cls-5" d="M14.38,25.68a3.89,3.89,0,0,1-1.25,2.71,2.07,2.07,0,0,1-2.63.08,3.5,3.5,0,0,0-1.08-.78,7.77,7.77,0,0,1-.35-1.84,15.24,15.24,0,0,1,2-.8,3.47,3.47,0,0,1,3,.38Z"/><path class="cls-4" d="M12.65,20.8s-.55,3.44-3.86,3.72C6.82,22.48,10.68,18.75,12.65,20.8Z"/><path class="cls-4" d="M14.39,23.94a6,6,0,0,1-2.16-3C14,20.55,15.18,22.28,14.39,23.94Z"/><path class="cls-4" d="M64.08,26.47c1-.51,1.43-1.46,2.78-1.55A4.09,4.09,0,0,1,70,26.2c2.18,2.14,3.35,5.2,4.44,8,.83,2.14,1.57,4.66.38,6.63a4,4,0,0,1-3.32,1.91,5.22,5.22,0,0,1-3.75-1.81,13.86,13.86,0,0,1-2.23-3.64c-.54-1.15-1.64-1.44-1.91-2.83-.19-1-.36-1.95-.62-2.9C62.46,29.81,62.16,27.39,64.08,26.47Z"/><path class="cls-5" d="M78.06,54c-.46-1.85-.93-8-1.4-9.84-.57-2.25-.74-5.52-3-6.87a13.36,13.36,0,0,0-7.17-1.56l-.75,0a6.46,6.46,0,0,0-1.39.19,8.63,8.63,0,0,0-2.84,1.09c-2.22,1.35-1.88,4.81-3,6.86C56,48.89,58,61.11,57.48,63c0,0-.83,2.17,1,2.14-1.76,2.18,1.84,6,1.84,6.05Z"/><path class="cls-7" d="M67.8,32.49a9.73,9.73,0,0,0-.94.64,1.5,1.5,0,0,0-.46.51,1.61,1.61,0,0,0-.12.66c0,.84,0,1.11-.82,1.37a.3.3,0,0,0-.17.1.35.35,0,0,0-.05.21,1.51,1.51,0,0,0,1.32,1.41,2.76,2.76,0,0,0,.76-.06l1.28-.22a2,2,0,0,0,1.4-.62.39.39,0,0,0,.09-.39.47.47,0,0,0-.19-.18,2.94,2.94,0,0,1-1.52-2A15.83,15.83,0,0,0,67.8,32.49Z"/><path class="cls-7" d="M65.46,35.28h0a.94.94,0,0,0,.65.17,2.65,2.65,0,0,0,1-.36,3.58,3.58,0,0,0,1.59-2.17,8,8,0,0,0-.38-4.56c-1.34-2.65-5.77-1.77-5.54,1C62.81,29.32,62.87,33.47,65.46,35.28Z"/><path class="cls-7" d="M69.89,30.72c-.35-.91-1.16-.18-1.16-.18v2.23A1.52,1.52,0,0,0,69.89,30.72Z"/><path class="cls-5" d="M64.82,35.09h0a2,2,0,0,0,2.08.29,2.26,2.26,0,0,0,.82-.63c.22-.27.39-.54.59-.77h0a4,4,0,0,1-.9-2.74v-.13c-.35-.06-.74-.11-1.14-.16a4.18,4.18,0,0,0-3.12.95A5.6,5.6,0,0,0,64.82,35.09Z"/><path class="cls-4" d="M63.85,27.27s1.38,3.61,5,3.16C70.53,27.76,65.52,24.6,63.85,27.27Z"/><path class="cls-5" d="M61.27,80c-1-3.91-2-28-3-31.87C57.12,43.37,56.75,36.45,52,33.6c-4.42-2.68-9.86-3.43-15.17-3.33l-1.59.05a13.88,13.88,0,0,0-3,.39,18.7,18.7,0,0,0-6,2.3c-4.71,2.86-5.08,9.77-6.29,14.53-1,3.91-2,28.42-3,32.33l6.46-.09a.68.68,0,0,1,0,.14Z"/><path class="cls-3" d="M35.5,28.11c0,.18-.07.35-.11.49a3.26,3.26,0,0,1-.5,1.25c-.62.8-1.81.86-2.64,1.45a.56.56,0,0,0-.27.35c0,.23.18.42.37.56,3.84,2.66,10.19,3.82,12.76-1.06-1.15-.63-2.6-.9-3-2.36-.31-1.17.33-2.88.1-4.19-.34-1.87-2.7-5.89-4.94-4.19C35.72,21.61,35.84,26.32,35.5,28.11Z"/><path class="cls-8" d="M46.85,18.53c-.46-2.22.57-4.48.52-6.74A7,7,0,0,0,47,9.62c-.12-.36-.24-.84.06-1.07s.7,0,.92.27a2.89,2.89,0,0,1,.55,2,13.33,13.33,0,0,1-.54,4C47.53,16,46.81,17.19,46.85,18.53Z"/><path class="cls-4" d="M31.83,7.28a8.12,8.12,0,0,1,.22-4.16C33,1,35.63.06,38,0a8.54,8.54,0,0,1,2.14.2c1.58.41,2.9,1.48,4.41,2.1s3.53.63,4.47-.7a4.24,4.24,0,0,1-.84,4.13,3.24,3.24,0,0,0,2.15,0c1.45,3.63.37,7.87-1.82,11.11s-5.35,5.66-8.45,8l-5.52-7.14a18.34,18.34,0,0,1-2.91-4.67A7.23,7.23,0,0,1,31.83,7.28Z"/><path class="cls-4" d="M34.68,25.52a16.27,16.27,0,0,1-7.32-14A7.57,7.57,0,0,1,28.74,7,3.75,3.75,0,0,1,33,5.68,26,26,0,0,1,34.68,25.52Z"/><path class="cls-7" d="M47.51,12.19c.15-3.29-3.74-5.1-7.68-5.26s-8,1.25-8.13,4.53c0,0-1.39,9.67,3.67,15.2a5.37,5.37,0,0,0,3.47,1.73A5.35,5.35,0,0,0,42.46,27C48,21.94,47.51,12.19,47.51,12.19Z"/><path class="cls-7" d="M29.52,16.57c.65-2.23,2.71-.65,2.71-.65l.43,5.26C31.2,21.38,28.74,19.24,29.52,16.57Z"/><path class="cls-7" d="M49.21,17.48c-.44-2.29-2.63-.91-2.63-.91l-.92,5.21C47.1,22.11,49.74,20.21,49.21,17.48Z"/><path class="cls-4" d="M31.79,17.84c.66-2.17-.16-4.51.1-6.76A7.1,7.1,0,0,1,32.47,9c.16-.35.33-.82,0-1.08s-.69-.06-.94.18A2.87,2.87,0,0,0,30.85,10,13.13,13.13,0,0,0,31,14C31.34,15.25,32,16.51,31.79,17.84Z"/><path class="cls-5" d="M46.54,20c-.3,2.08-.74,5.21-1,5.2-1.24.36-1.95,1.32-3,2.18A5.43,5.43,0,0,1,35.28,27c-1-1-1.58-2-2.78-2.44-.29,0-.44-3.18-.55-5.27a25.51,25.51,0,0,1,5.49-2.17,6.76,6.76,0,0,1,3.83.18A25.1,25.1,0,0,1,46.54,20Z"/><path class="cls-9" d="M32.52,24.23a9,9,0,0,1-1-3.25"/><line class="cls-9" x1="46.42" y1="19.99" x2="47.29" y2="16.26"/><line class="cls-9" x1="32.15" y1="19.48" x2="31.48" y2="15.51"/><path class="cls-9" d="M45.4,24.82a26.88,26.88,0,0,0,1.29-3.12"/></svg>