<svg id="Layer_1" data-name="Layer 1" xmlns="http://www.w3.org/2000/svg" viewBox="0 0 80 80"><defs><style>.cls-1{fill:#2c3d63;}.cls-2{fill:#fff;}.cls-3{fill:#fadac6;}.cls-4{fill:#231f20;}</style></defs><title>mobilitas_asets covid apps</title><circle class="cls-1" cx="40" cy="40" r="36" transform="translate(-12.26 61.65) rotate(-67.5)"/><path class="cls-2" d="M61,19.31l-4-1.8L42.12,10.83a5.22,5.22,0,0,0-4.24,0L23,17.51l-4,1.8a1.8,1.8,0,0,0-1,1.66c0,1.23,1,2.09,2,1.66l1.74-.78V43.52A1.38,1.38,0,0,0,23,45a1.38,1.38,0,0,0,1.23-1.48V20.74l14.17-6.37a3.91,3.91,0,0,1,3.18,0l14.17,6.37V43.52a1.25,1.25,0,1,0,2.45,0V21.85l1.74.78c1,.43,2-.43,2-1.66A1.8,1.8,0,0,0,61,19.31Z"/><path class="cls-2" d="M56.79,80c-.75-3-1.5-21.24-2.25-24.2-.91-3.62-1.19-8.87-4.76-11-3.36-2-7.49-2.6-11.52-2.53l-1.21,0a10.51,10.51,0,0,0-2.25.3,14,14,0,0,0-4.55,1.75c-3.58,2.16-3.86,7.41-4.78,11-.75,3-1.5,21.59-2.26,24.55l4.92-.06,0,.1Z"/><path class="cls-3" d="M37.16,40.87v2.49a1.25,1.25,0,0,0,.57,1l.2.13a3.87,3.87,0,0,0,4.29-.09h0a1.24,1.24,0,0,0,.53-1v-2.8Z"/><path class="cls-3" d="M30.62,34.7c.37-2.1,2.4-.87,2.4-.87l.92,4.74C32.63,38.9,30.18,37.2,30.62,34.7Z"/><path class="cls-3" d="M48.59,33.55c-.63-2-2.48-.56-2.48-.56l-.31,4.82C47.14,38,49.35,36,48.59,33.55Z"/><path class="cls-4" d="M32.36,36.66a7.21,7.21,0,0,1-2.37-5,8.38,8.38,0,0,1,3-7.16,7.24,7.24,0,0,1,7.69-.8,5.26,5.26,0,0,1,6,.79c1.34,1.32,1.72,3.3,1.94,5.16a14,14,0,0,1,.07,3.42,5.68,5.68,0,0,1-1.36,3.09,6,6,0,0,1-2.72,1.57,18.37,18.37,0,0,1-3.14.52,16,16,0,0,1-6.37-.19A9,9,0,0,1,32.36,36.66Z"/><path class="cls-3" d="M41,28.63a14.8,14.8,0,0,1-9,3.91c0,.23,0,.46,0,.69v.82a7.63,7.63,0,0,0,7.61,7.67h0a7.65,7.65,0,0,0,7.68-7.61V33.3A7.41,7.41,0,0,0,47,31.59,9.4,9.4,0,0,1,41,28.63Z"/><path class="cls-2" d="M46.15,34.94c0,1.64-.1,4.13-.37,4.15a8.16,8.16,0,0,0-2.45,2,5.5,5.5,0,0,1-6.54.57A8,8,0,0,0,34,40.11c-.27,0-.75-2.42-1.08-4a24.54,24.54,0,0,1,4.71-2.31,7,7,0,0,1,3.45-.3A24.35,24.35,0,0,1,46.15,34.94Z"/></svg>