<svg id="Layer_1" data-name="Layer 1" xmlns="http://www.w3.org/2000/svg" viewBox="0 0 80 80"><defs><style>.cls-1{fill:#2c3d63;}.cls-2{fill:#fbdbc9;}.cls-3{fill:#fff;}.cls-4{fill:#fbdfcf;}.cls-5{fill:#231f20;}.cls-6{fill:#fadac6;}.cls-7{fill:#ad2a2a;}</style></defs><title>self kontak_asets covid apps</title><circle class="cls-1" cx="40" cy="40" r="36" transform="translate(-12.26 61.65) rotate(-67.5)"/><path class="cls-2" d="M62.5,76.83A17.87,17.87,0,0,1,60.62,71c-.46-2.3-.91-4.61-1.37-6.92-.55-2.8-1-5.94.36-7.95.94-1.33,2.51-1.85,4-2.33s3.73-.91,5.13.63a6.9,6.9,0,0,1,1.37,3.33l2,9.52c.64,3,1.28,6.24.46,9C71.34,80.42,65.25,81.45,62.5,76.83Z"/><path class="cls-3" d="M58.76,64.17a1.07,1.07,0,0,0,.41.09c2.24.08,4.48.22,6.72.23,2,0,5.08.6,7.1.51q-.49-5-1-9.91a24.85,24.85,0,0,0-1.34-3.92c-.82-2.61-3.26-4.08-5.3-6.1-3.15-3.13-7.89.63-8.4,4-.42,2.76.58,6.18.84,9C57.91,59.23,57.25,63.48,58.76,64.17Z"/><path class="cls-3" d="M60.51,75q.8-8,1.61-15.94c.45-4.36.55-9.24,1.76-13.42.88-3-9-4.54-10.72-5a46,46,0,0,0-9.11-2c-6.61-.52-13.12,1.78-19.18,4.48a2.86,2.86,0,0,0-1.53,1.18,2.87,2.87,0,0,0-.13,1.46c.68,7.16,1.34,14.29,2.11,21.45.17,1.63.66,12.43,3.42,12.36l30.66-.25Z"/><path class="cls-2" d="M48.1,38.53c1.1,1.58,3.4,1.88,2,4.44a5,5,0,0,1-2.65,2.08,8.54,8.54,0,0,1-9.16-2.24h0c-1.41-1.6,1.6-3.47,2.26-5,1-2.28.64-5,1.06-7.44.33-1.9.75-4.46,2.81-3,1.28.89,1.66,4.08,2,5.44.48,1.94.51,4,1.67,5.74Z"/><path class="cls-4" d="M12.77,69.17a16.16,16.16,0,0,1,.88-5.39c.58-2,1.15-4,1.73-6,.7-2.43,1.58-5.12,3.51-6.14A6.41,6.41,0,0,1,23,51.4c1.51.26,3.31.79,3.81,2.57a6.22,6.22,0,0,1-.28,3.19c-.75,2.78-1.51,5.56-2.26,8.33S22.75,71,21,72.76C18.31,75.58,13.08,73.94,12.77,69.17Z"/><path class="cls-5" d="M28,3.22c1.44,1.58,3.68.39,5.16-.4,1.94-1,3.84-2.3,6-2.68a12.88,12.88,0,0,1,9.23,2.29c2.86,2.14,3.57,6.35,2.42,9.74l-16.8,5L33.7,18C25.27,14.12,28,3.22,28,3.22Z"/><path class="cls-5" d="M49.32,32.22c7.22-4.93,11.17-12.82,10-20a8.47,8.47,0,0,0-2.93-5.57,7.15,7.15,0,0,0-7.18-.81A28.2,28.2,0,0,0,49.32,32.22Z"/><path class="cls-6" d="M40.24,37h0a3.2,3.2,0,0,0,2.23.53A8.65,8.65,0,0,0,46,36.18a12.18,12.18,0,0,0,5.3-7.46c1.88-7.64-1.6-15.44-1.6-15.44-4.73-8.94-19.76-5.63-18.79,3.58C30.86,16.86,31.32,31,40.24,37Z"/><path class="cls-6" d="M55.05,21.19c-1.25-3.09-4-.54-4-.54l.16,7.57C53.36,28.29,56.54,24.88,55.05,21.19Z"/><path class="cls-5" d="M51.51,20s-5.76-4.13-6-10.78c2.93,1,6.6,4,6.34,7.1,0,.59-.26,3-.31,3.68Z"/><path class="cls-3" d="M24.26,61.19a.93.93,0,0,1-.36,0c-1.77-.65-3.58-1.24-5.34-1.94-1.59-.63-3.31-.74-4.85-1.46l4.64-8.49a17.34,17.34,0,0,1,1.7-2.73c1.66-2.05,4.12-3.26,6.49-4.41,3.69-1.78,5.93,3.08,5,6.27-.75,2.59-2.86,5.31-4.14,7.69C26.85,57.07,25.71,61.07,24.26,61.19Z"/><path class="cls-4" d="M30.07,48.57c-.09-.75-4.27-2.8-5.05-3.12-1.34-.54-9.64,17.13-10.67,19a6.49,6.49,0,0,0-1.06,3c-.06,2.67,3.47,4.19,5.85,4.39,3.48.3,3.47-1.42,4.33-3.92L26.16,60Q28.11,54.29,30.07,48.57Z"/><path class="cls-4" d="M22.26,50.7a4.64,4.64,0,0,1-.14-.83,3,3,0,0,1,.65-1.63l1.7-3.2c.72-1.36,1.44-2.73,2.17-4.09V33c.05-.7.8-1.3,1.23-1.79l1.56-1.77c.15-.17.27-.36.44-.52a2.43,2.43,0,0,1,.52-.3c.32-.18.66-.33,1-.5.74-.36,1.47-.73,2.23-1a3.52,3.52,0,0,1,.42-.15c.69-.15.43,1.48-.64,2.13s-2.42,1.1-3.07,2.17l-1.42,2.3,2.51-2.48.4-.4a8.85,8.85,0,0,1,1.49-1.08c.71-.46,1.43-.91,2.17-1.34,1.66-1,2-.38,1.28.56a27.68,27.68,0,0,1-3.52,3.11c-.33.25-.42.63-.64,1l-.68,1a8.37,8.37,0,0,1-.84,1.26l3.78-3.88s2.38-2.36,3.17-2.07S35.64,33,35.64,33l-2.46,3.27.1-.09a41,41,0,0,0,3.17-3.15l.67-.76s.7-.76.79,0-1,2.64-1.22,3.12a22.1,22.1,0,0,0-2.1,3.28c-.31,1-1,4.15-2.13,4.92l-1.17.76c-.66,2.08-1.14,4.22-1.93,6.27-.31.79-.55,2.06-1.34,2.53a4.85,4.85,0,0,1-3.32.09A3.6,3.6,0,0,1,22.26,50.7Z"/><path class="cls-2" d="M68.5,80a5,5,0,0,0,3.25-2.24C76.44,70.52,65.05,67.58,60.6,65L50.32,59.08s-2.14,3.5-2.24,3.77c-.9,2.47,1.43,4,3.27,5.84a66.47,66.47,0,0,0,13,10.09A7.2,7.2,0,0,0,67.78,80,3.4,3.4,0,0,0,68.5,80Z"/><path class="cls-2" d="M59.07,65a4.51,4.51,0,0,0-.32-.79c-.3-.58-.91-.76-1.45-1.09l-3.2-1.89L50,58.79l-1.42-2.3q-1.17-1.93-2.36-3.85l-.36-.59a2.53,2.53,0,0,0-.13-.22c-.42-.59-1.4-.71-2-.91l-2.3-.71c-.23-.07-.44-.17-.67-.22a2.57,2.57,0,0,0-.62,0c-.38,0-.76.06-1.13.1-.84.07-1.69.14-2.52.28a3.13,3.13,0,0,0-.44.1c-.69.23.41,1.53,1.7,1.52s2.71-.34,3.85.25L44,53.5l-3.53-.82-.56-.13a10,10,0,0,0-1.89-.16c-.87,0-1.75,0-2.62,0-2,0-1.92.72-.82,1.18a29.7,29.7,0,0,0,4.76.83,3.3,3.3,0,0,1,1.06.49l1.15.53a9,9,0,0,0,1.41.65L37.6,54.7s-3.36-.78-3.9-.11,4.15,2.09,4.15,2.09l3.92,1.54-.14,0a42.65,42.65,0,0,1-4.47-1l-1-.31s-1-.29-.71.42,2.28,1.79,2.75,2.07,2.81,1,3.6,1.75,3.07,3.12,4.51,3.17l1.43,0c1.7,1.47,3.27,3.09,5.06,4.45.69.53,1.59,1.51,2.53,1.5a4.94,4.94,0,0,0,3-1.71A3.7,3.7,0,0,0,59.07,65Z"/><path class="cls-7" d="M17.38,18.84a8.7,8.7,0,1,0,8.7,8.7A8.7,8.7,0,0,0,17.38,18.84Zm0,1.28A7.39,7.39,0,0,1,22.29,22L11.11,31.49a7.39,7.39,0,0,1,6.27-11.37ZM23.22,23a7.35,7.35,0,0,1,1.58,4.53,7.4,7.4,0,0,1-12.85,5Z"/></svg>