<svg id="Layer_1" data-name="Layer 1" xmlns="http://www.w3.org/2000/svg" viewBox="0 0 80 80"><defs><style>.cls-1{fill:#2c3d63;}.cls-2{fill:#fff;}.cls-3{fill:#231f20;}.cls-4{fill:#fbdbc9;}.cls-5{fill:#fad9c7;}</style></defs><title>masker_asets covid apps</title><circle class="cls-1" cx="40" cy="40" r="36" transform="translate(-12.26 61.65) rotate(-67.5)"/><path class="cls-2" d="M24.07,75.52Q23,67.35,22,59.19c-.58-4.47-.83-9.48-2.18-13.74-1-3,9-4.92,10.83-5.49a48.07,48.07,0,0,1,9.27-2.27c6.77-.73,13.49,1.45,19.78,4.05a2.84,2.84,0,0,1,1.61,1.17,2.87,2.87,0,0,1,.16,1.49c-.48,7.38-1,14.72-1.53,22.1-.13,1.68-.32,12.8-3.16,12.8l-31.41.63Z"/><path class="cls-3" d="M31.91,9.69A10.2,10.2,0,0,1,32,4.4C33,1.59,36.32.3,39.32.1a10,10,0,0,1,2.73.14c2,.42,3.77,1.7,5.72,2.4s4.51.6,5.64-1.14a5.39,5.39,0,0,1-.83,5.28,4.07,4.07,0,0,0,2.73-.14c2,4.52.92,10-1.67,14.21s-6.46,7.5-10.27,10.69L36,22.79A23.09,23.09,0,0,1,32,17C31.07,14.87,30.8,11.75,31.91,9.69Z"/><path class="cls-3" d="M36.59,33.37A20.7,20.7,0,0,1,26.48,16,9.58,9.58,0,0,1,28,10.21a4.79,4.79,0,0,1,5.3-1.93A33.1,33.1,0,0,1,36.59,33.37Z"/><path class="cls-3" d="M32.47,23.78c.71-2.79-.46-5.72-.27-8.59a9,9,0,0,1,.62-2.72c.18-.46.37-1.06,0-1.37s-.88,0-1.18.28a3.66,3.66,0,0,0-.81,2.48A16.76,16.76,0,0,0,31.27,19C31.75,20.52,32.6,22.08,32.47,23.78Z"/><path class="cls-4" d="M11.62,77a6,6,0,0,1-3.79-1.06C.32,71.06,8.1,65.7,10.41,62.41l5.34-7.6s3.52,2.39,3.75,2.6c2,1.85.87,3.72.31,5.74a40.07,40.07,0,0,1-5.42,11.77,4.39,4.39,0,0,1-2.16,1.94A3,3,0,0,1,11.62,77Z"/><path class="cls-2" d="M35.16,29.59c-2,1.21-5.31,3.46-7.8,2.71-2.8-.84-.3-5.72.41-7.18.23-.47-.48-.89-.71-.41-.93,1.92-3.27,6.54-.54,8.13s6.91-1.22,9.06-2.55a.41.41,0,0,0-.42-.7Z"/><path class="cls-4" d="M35.72,37.74a3.31,3.31,0,0,1-.9.89c-.15.1-.33.22-.34.4s.13.3.26.41c1.19,1,4.48,6.15,6.18,5.75a2,2,0,0,0,1-.75l3.56-4.24a.59.59,0,0,0,.21-.47c0-.15-.16-.26-.29-.36-3.05-2.29-2.49-6.65-3.22-10.2-.39-1.94-.9-4.56-3-3-1.28.94-1.58,4.23-1.89,5.64C36.9,33.57,36.87,36.13,35.72,37.74Z"/><path class="cls-5" d="M51.76,16.53c.29-4.5-5-7.09-10.37-7.41s-10.94,1.49-11.23,6c0,0-2.14,13.22,4.64,20.94a7.31,7.31,0,0,0,4.7,2.45,7.27,7.27,0,0,0,5-1.82C52.18,29.91,51.76,16.53,51.76,16.53Z"/><path class="cls-5" d="M27.06,22.06c.94-3,3.72-.83,3.72-.83l.45,7.23C29.23,28.7,25.93,25.7,27.06,22.06Z"/><path class="cls-5" d="M54,23.82c-.55-3.14-3.58-1.3-3.58-1.3L49,29.63C50.94,30.12,54.6,27.58,54,23.82Z"/><path class="cls-4" d="M74.25,71.13a13,13,0,0,0-.92-4.56Q72.48,64,71.64,61.5c-.68-2-1.54-4.31-3.28-5.12a6,6,0,0,0-3.68-.09c-1.34.26-2.94.76-3.33,2.28a5,5,0,0,0,.32,2.7q1.13,3.51,2.23,7c.71,2.25,1.49,4.6,3.09,6.09A4.38,4.38,0,0,0,74.25,71.13Z"/><path class="cls-2" d="M61.19,60.2a.82.82,0,0,0,.37-.06c1.8-.71,3.63-1.37,5.41-2.14,1.61-.69,3.37-.85,4.93-1.64q-2.5-4.29-5-8.59A19.14,19.14,0,0,0,65.08,45c-1.76-2.06-4.31-3.23-6.77-4.34-3.83-1.73-6,3.33-4.93,6.59.84,2.63,3.08,5.37,4.46,7.78C58.42,56,59.7,60.11,61.19,60.2Z"/><path class="cls-2" d="M49.7,25.63a2.77,2.77,0,0,1,3.47-2.89c1.15.21,2.72.61,3.27,1.75.23.48.94.06.71-.41-.76-1.59-3.11-2.16-4.72-2.26-2.17-.12-3.51,1.78-3.55,3.81a.41.41,0,0,0,.82,0Z"/><path class="cls-2" d="M50.35,26.11c-.29,2.93-.71,7.37-1.12,7.37-1.72.59-2.64,2-4.06,3.25a7.63,7.63,0,0,1-10.19,0c-1.42-1.28-2.34-2.66-4.06-3.25-.41,0-.82-4.44-1.12-7.37a35.76,35.76,0,0,1,7.59-3.4,9.47,9.47,0,0,1,5.38,0A35.32,35.32,0,0,1,50.35,26.11Z"/><path class="cls-4" d="M60,51.52c.14-.76,4.38-2.44,5.17-2.68,1.35-.42,8.41,18.51,9.31,20.52a7.21,7.21,0,0,1,.85,3.16c-.11,2.74-3.68,3.93-6,3.9-3.45,0-3.33-1.81-4-4.45s-1.43-5.56-2.15-8.34Q61.6,57.59,60,51.52Z"/><path class="cls-2" d="M21.39,62.88l-.12.37a9.65,9.65,0,0,1-3.38-.54,19.47,19.47,0,0,1-3.38-1.63c-.54-.33-5.08-2.18-5.26-1.83l4.45-8.89a18,18,0,0,1,1.65-2.86c1.62-2.17,4.1-3.5,6.49-4.76,3.71-2,6.17,2.95,5.33,6.27-.61,2.39-2.24,4.25-3.15,6.49C23.05,57.9,22.19,60.4,21.39,62.88Z"/><path class="cls-4" d="M14,51.64a3.79,3.79,0,0,1-.16-.88A3.21,3.21,0,0,1,14.51,49l1.78-3.44,2.28-4.42c0-.94,0-1.88,0-2.82,0-1.58,0-3.15,0-4.72v-1c0-.75.84-1.4,1.3-1.93l1.65-1.91c.16-.18.29-.39.47-.56a2.36,2.36,0,0,1,.55-.33c.34-.19.7-.37,1.06-.54.78-.4,1.56-.81,2.37-1.14a2.69,2.69,0,0,1,.45-.16c.73-.18.48,1.58-.67,2.29s-2.58,1.2-3.26,2.35l-1.5,2.48,2.67-2.68.42-.43a9.56,9.56,0,0,1,1.58-1.18c.76-.5,1.53-1,2.31-1.45,1.77-1.05,2.1-.42,1.38.59a29.82,29.82,0,0,1-3.74,3.36c-.35.27-.44.68-.67,1l-.72,1.1a9.65,9.65,0,0,1-.89,1.36l4-4.2s2.53-2.54,3.37-2.25-2.5,4.15-2.5,4.15l-2.61,3.53a.52.52,0,0,1,.11-.1C26.8,34.88,28,33.8,29,32.59l.71-.83s.74-.82.85,0-1,2.84-1.28,3.36-1.9,2.47-2.22,3.53-1,4.47-2.23,5.3l-1.24.83c-.69,2.24-1.18,4.54-2,6.74-.32.85-.57,2.21-1.4,2.72a5.18,5.18,0,0,1-3.56.13A3.86,3.86,0,0,1,14,51.64Z"/><path class="cls-2" d="M49.24,30.14c1.24,1.67,4.34,1.82,5.92.53a6.82,6.82,0,0,0,2-6.52.41.41,0,0,0-.79.22,6.14,6.14,0,0,1-1.18,5c-1.09,1.41-4.08,1.93-5.27.32-.31-.42-1,0-.71.41Z"/><path class="cls-4" d="M67.61,54.34a4.07,4.07,0,0,0,.22-.83,3.14,3.14,0,0,0-.53-1.73c-.49-1.14-1-2.28-1.46-3.41Q64.89,46.18,64,44c.07-.9.14-1.79.22-2.69l.36-4.5.06-.69a2.28,2.28,0,0,0,0-.26c0-.72-.71-1.4-1.11-1.94L62.08,32a5.81,5.81,0,0,0-.4-.57,2.44,2.44,0,0,0-.51-.35c-.31-.21-.65-.4-1-.6-.72-.43-1.44-.87-2.19-1.25a3.17,3.17,0,0,0-.42-.19c-.68-.21-.56,1.48.48,2.24s2.38,1.32,3,2.47,1.25,2.47,1.25,2.47l-2.36-2.74L59.55,33a9.94,9.94,0,0,0-1.43-1.24c-.69-.53-1.39-1.05-2.1-1.54-1.62-1.12-2-.55-1.36.47A29.5,29.5,0,0,0,58,34.18a3.52,3.52,0,0,1,.57,1l.61,1.11a8.46,8.46,0,0,0,.75,1.35L56.4,33.38S54.16,30.77,53.33,31s2.1,4.13,2.1,4.13l2.25,3.55-.1-.1c-1-1.14-2.06-2.25-3-3.49L54,34.26s-.65-.84-.81-.08.78,2.79,1,3.3A23.42,23.42,0,0,1,56,41c.23,1,.63,4.34,1.75,5.22l1.13.88c.51,2.18.82,4.41,1.45,6.57.25.84.39,2.16,1.15,2.7a5,5,0,0,0,3.39.37A3.66,3.66,0,0,0,67.61,54.34Z"/><path class="cls-4" d="M12.45,75.21a5.17,5.17,0,0,1-4.1,0c-8.25-3.47-.21-12.67,2.1-17.49l5.34-11.13s3.88,1.76,4.13,1.94c2.21,1.59,1.11,4.27.61,6.94a69,69,0,0,1-5.22,16.29,7.39,7.39,0,0,1-2.21,3.1A3.81,3.81,0,0,1,12.45,75.21Z"/><path class="cls-2" d="M31,26.28a28.78,28.78,0,0,1-.76-5.64c0-.52-.85-.52-.82,0a29.62,29.62,0,0,0,.79,5.86.41.41,0,0,0,.79-.22Z"/></svg>